{
  "source": "C:\\Users\\Peter\\Desktop\\stuff\\MIUN\\quantitative_research\\video_compression\\videos\\BVI-HD\\BVI-HD_CDVL_videos\\ORIG\\Music_1920x1080_30fps.mp4",
  "output": "C:\\Users\\Peter\\Desktop\\stuff\\MIUN\\quantitative_research\\video_compression\\compressed_videos\\BVI-HD\\av1\\8\\Music_1920x1080_30fps_av1.mkv",
  "codec": "av1",
  "ok": "Input #0, mov,mp4,m4a,3gp,3g2,mj2, from 'C:\\Users\\Peter\\Desktop\\stuff\\MIUN\\quantitative_research\\video_compression\\videos\\BVI-HD\\BVI-HD_CDVL_videos\\ORIG\\Music_1920x1080_30fps.mp4':\n  Metadata:\n    major_brand     : isom\n    minor_version   : 512\n    compatible_brands: isomiso2avc1mp41\n    encoder         : Lavf54.28.101\n  Duration: 00:00:05.00, start: 0.000000, bitrate: 192710 kb/s\n  Stream #0:0[0x1](und): Video: h264 (High 4:4:4 Predictive) (avc1 / 0x31637661), yuv420p(progressive), 1920x1080, 192707 kb/s, 30 fps, 30 tbr, 30 tbn (default)\n    Metadata:\n      handler_name    : VideoHandler\n      vendor_id       : [0][0][0][0]\n[out#0/matroska @ 0000029836128f40] Codec AVOption b:a (set bitrate (in bits/s)) has not been used for any stream. The most likely reason is either wrong type (e.g. a video option with no video streams) or that it is a private option of some decoder which was not actually used for any stream.\nStream mapping:\n  Stream #0:0 -> #0:0 (h264 (native) -> av1 (libsvtav1))\nPress [q] to stop, [?] for help\nSvt[info]: -------------------------------------------\nSvt[info]: SVT [version]:\tSVT-AV1 Encoder Lib v3.1.0-19-g6ecfe8ec\nSvt[info]: SVT [build]  :\tGCC 15.2.0\t 64 bit\nSvt[info]: LIB Build date: Aug 17 2025 11:37:13\nSvt[info]: -------------------------------------------\nSvt[info]: Level of Parallelism: 5\nSvt[info]: Number of PPCS 93\nSvt[info]: [asm level on system : up to avx2]\nSvt[info]: [asm level selected : up to avx2]\nSvt[info]: -------------------------------------------\nSvt[info]: SVT [config]: main profile\ttier (auto)\tlevel (auto)\nSvt[info]: SVT [config]: width / height / fps numerator / fps denominator \t\t: 1920 / 1080 / 30 / 1\nSvt[info]: SVT [config]: bit-depth / color format \t\t\t\t\t: 8 / YUV420\nSvt[info]: SVT [config]: preset / tune / pred struct \t\t\t\t\t: 4 / PSNR / random access\nSvt[info]: SVT [config]: gop size / mini-gop size / key-frame type \t\t\t: 161 / 16 / key frame\nSvt[info]: SVT [config]: BRC mode / target bitrate (kbps)\t\t\t\t: VBR / 8000 \nSvt[info]: SVT [config]: AQ mode / Variance Boost \t\t\t\t\t: 2 / 0\nSvt[info]: SVT [config]: sharpness / luminance-based QP bias \t\t\t\t: 0 / 0\nSvt[info]: SVT [config]: QP scale compress strength \t\t\t\t\t: 0\nSvt[info]: -------------------------------------------\nOutput #0, matroska, to 'C:\\Users\\Peter\\Desktop\\stuff\\MIUN\\quantitative_research\\video_compression\\compressed_videos\\BVI-HD\\av1\\8\\Music_1920x1080_30fps_av1.mkv':\n  Metadata:\n    major_brand     : isom\n    minor_version   : 512\n    compatible_brands: isomiso2avc1mp41\n    encoder         : Lavf62.3.100\n  Stream #0:0(und): Video: av1 (AV01 / 0x31305641), yuv420p(tv, progressive), 1920x1080, q=2-31, 8000 kb/s, 30 fps, 1k tbn (default)\n    Metadata:\n      encoder         : Lavc62.11.100 libsvtav1\n      handler_name    : VideoHandler\n      vendor_id       : [0][0][0][0]\n    Side data:\n      cpb: bitrate max/min/avg: 0/0/8000000 buffer size: 8000000 vbv_delay: N/A\nframe=    0 fps=0.0 q=0.0 size=       0KiB time=N/A bitrate=N/A speed=N/A elapsed=0:00:01.03    \nframe=    0 fps=0.0 q=0.0 size=       0KiB time=N/A bitrate=N/A speed=N/A elapsed=0:00:01.57    \nframe=    1 fps=0.5 q=11.0 size=       1KiB time=00:00:00.00 bitrate=N/A speed=   0x elapsed=0:00:02.11    \nframe=    1 fps=0.4 q=11.0 size=       1KiB time=00:00:00.00 bitrate=N/A speed=   0x elapsed=0:00:02.65    \nframe=    6 fps=1.9 q=19.0 size=       1KiB time=00:00:00.16 bitrate=  34.2kbits/s speed=0.0523x elapsed=0:00:03.18    \nframe=    8 fps=2.2 q=19.0 size=       1KiB time=00:00:00.23 bitrate=  24.4kbits/s speed=0.0633x elapsed=0:00:03.68    \nframe=   12 fps=2.8 q=17.0 size=       1KiB time=00:00:00.36 bitrate=  15.6kbits/s speed=0.0871x elapsed=0:00:04.21    \nframe=   18 fps=3.8 q=13.0 size=       1KiB time=00:00:00.56 bitrate=  10.1kbits/s speed=0.12x elapsed=0:00:04.73    \nframe=   21 fps=4.0 q=14.0 size=       1KiB time=00:00:00.66 bitrate=   8.6kbits/s speed=0.127x elapsed=0:00:05.25    \nframe=   23 fps=4.0 q=12.0 size=       1KiB time=00:00:00.73 bitrate=   7.8kbits/s speed=0.127x elapsed=0:00:05.76    \nframe=   26 fps=4.1 q=12.0 size=       1KiB time=00:00:00.83 bitrate=   6.8kbits/s speed=0.132x elapsed=0:00:06.31    \nframe=   28 fps=4.0 q=12.0 size=       1KiB time=00:00:00.90 bitrate=   6.3kbits/s speed=0.13x elapsed=0:00:06.94    \nframe=   30 fps=4.0 q=13.0 size=       1KiB time=00:00:00.96 bitrate=   5.9kbits/s speed=0.128x elapsed=0:00:07.54    \nframe=   33 fps=4.1 q=12.0 size=       1KiB time=00:00:01.06 bitrate=   5.3kbits/s speed=0.131x elapsed=0:00:08.14    \nframe=   35 fps=4.0 q=15.0 size=       1KiB time=00:00:01.13 bitrate=   5.0kbits/s speed=0.13x elapsed=0:00:08.71    \nframe=   38 fps=4.1 q=20.0 size=       1KiB time=00:00:01.20 bitrate=   4.8kbits/s speed=0.129x elapsed=0:00:09.28    \nframe=   40 fps=4.0 q=20.0 size=       1KiB time=00:00:01.30 bitrate=   4.4kbits/s speed=0.131x elapsed=0:00:09.91    \nframe=   42 fps=4.0 q=19.0 size=       1KiB time=00:00:01.36 bitrate=   4.2kbits/s speed=0.13x elapsed=0:00:10.47    \nframe=   46 fps=4.2 q=21.0 size=       1KiB time=00:00:01.46 bitrate=   3.9kbits/s speed=0.133x elapsed=0:00:11.04    \nframe=   49 fps=4.2 q=5.0 size=       1KiB time=00:00:01.60 bitrate=   3.6kbits/s speed=0.138x elapsed=0:00:11.59    \nframe=   55 fps=4.5 q=16.0 size=       1KiB time=00:00:01.80 bitrate=   3.2kbits/s speed=0.148x elapsed=0:00:12.17    \nframe=   57 fps=4.5 q=9.0 size=       1KiB time=00:00:01.86 bitrate=   3.1kbits/s speed=0.146x elapsed=0:00:12.76    \nframe=   61 fps=4.6 q=13.0 size=       1KiB time=00:00:02.00 bitrate=   2.9kbits/s speed=0.15x elapsed=0:00:13.30    \nframe=   65 fps=4.7 q=1.0 size=       1KiB time=00:00:02.13 bitrate=   2.7kbits/s speed=0.154x elapsed=0:00:13.86    \nframe=   69 fps=4.8 q=17.0 size=       1KiB time=00:00:02.26 bitrate=   2.5kbits/s speed=0.158x elapsed=0:00:14.38    \nframe=   73 fps=4.9 q=12.0 size=       1KiB time=00:00:02.40 bitrate=   2.4kbits/s speed=0.161x elapsed=0:00:14.89    \nframe=   77 fps=5.0 q=16.0 size=       1KiB time=00:00:02.53 bitrate=   2.3kbits/s speed=0.164x elapsed=0:00:15.46    \nframe=   83 fps=5.2 q=19.0 size=       1KiB time=00:00:02.73 bitrate=   2.1kbits/s speed=0.171x elapsed=0:00:16.01    \nframe=   89 fps=5.4 q=16.0 size=       1KiB time=00:00:02.93 bitrate=   1.9kbits/s speed=0.177x elapsed=0:00:16.54    \nframe=   93 fps=5.5 q=16.0 size=       1KiB time=00:00:03.06 bitrate=   1.9kbits/s speed=0.18x elapsed=0:00:17.06    \nframe=   97 fps=5.5 q=9.0 size=       1KiB time=00:00:03.20 bitrate=   1.8kbits/s speed=0.182x elapsed=0:00:17.58    \nframe=  105 fps=5.8 q=16.0 size=       1KiB time=00:00:03.46 bitrate=   1.6kbits/s speed=0.191x elapsed=0:00:18.10    \nframe=  107 fps=5.7 q=19.0 size=       1KiB time=00:00:03.53 bitrate=   1.6kbits/s speed=0.19x elapsed=0:00:18.61    \nframe=  113 fps=5.9 q=9.0 size=       1KiB time=00:00:03.73 bitrate=   1.5kbits/s speed=0.195x elapsed=0:00:19.13    \nframe=  119 fps=6.1 q=20.0 size=       1KiB time=00:00:03.93 bitrate=   1.5kbits/s speed= 0.2x elapsed=0:00:19.64    \nframe=  123 fps=6.1 q=22.0 size=       1KiB time=00:00:04.06 bitrate=   1.4kbits/s speed=0.202x elapsed=0:00:20.16    \nframe=  129 fps=6.2 q=10.0 size=       1KiB time=00:00:04.26 bitrate=   1.3kbits/s speed=0.206x elapsed=0:00:20.68    \nframe=  133 fps=6.3 q=23.0 size=       1KiB time=00:00:04.40 bitrate=   1.3kbits/s speed=0.208x elapsed=0:00:21.18    \nframe=  139 fps=6.4 q=23.0 size=       1KiB time=00:00:04.60 bitrate=   1.2kbits/s speed=0.212x elapsed=0:00:21.70    \n[out#0/matroska @ 0000029836128f40] video:4633KiB audio:0KiB subtitle:0KiB other streams:0KiB global headers:0KiB muxing overhead: 0.031595%\nframe=  150 fps=6.8 q=23.0 Lsize=    4635KiB time=00:00:04.96 bitrate=7644.6kbits/s speed=0.225x elapsed=0:00:22.05    \n",
  "seconds": 22.449037790298462,
  "probe_out": {}
}